Mp4 rip from the original DVD's.One season one dvd 4.7 GB, every episode is 400Mb, 

720x480 resolution original!Excellent quality!!!Serbian subtitle inside!

Video
ID                                       : 1
Format                                   : AVC
Format/Info                              : Advanced Video Codec
Format profile                           : High@L3.1
Format settings, CABAC                   : Yes
Format settings, ReFrames                : 3 frames
Codec ID                                 : avc1
Codec ID/Info                            : Advanced Video Coding
Duration                                 : 52mn 55s
Source duration                          : 52mn 55s
Bit rate                                 : 955 Kbps
Width                                    : 720 pixels
Height                                   : 480 pixels
Display aspect ratio                     : 16:9
Frame rate mode                          : Variable
Frame rate                               : 23.976 fps
Minimum frame rate                       : 23.976 fps
Maximum frame rate                       : 24.000 fps
Standard                                 : NTSC
Color space                              : YUV
Chroma subsampling                       : 4:2:0
Bit depth                                : 8 bits
Scan type                                : Progressive
Bits/(Pixel*Frame)                       : 0.115
Stream size                              : 362 MiB (88%)
Source stream size                       : 362 MiB (88%)
Language                                 : English
Encoded date                             : UTC 2013-05-04 13:19:16
Tagged date                              : UTC 2013-05-04 13:19:16
mdhd_Duration                            : 3175381
Color primaries                          : BT.601 NTSC
Transfer characteristics                 : BT.601
Matrix coefficients                      : BT.601

Audio
ID                                       : 2
Format                                   : AAC
Format/Info                              : Advanced Audio Codec
Format profile                           : LC
Codec ID                                 : 40
Duration                                 : 52mn 55s
Source duration                          : 52mn 55s
Bit rate mode                            : Variable
Bit rate                                 : 125 Kbps
Maximum bit rate                         : 213 Kbps
Channel(s)                               : 2 channels
Channel positions                        : Front: L R
Sampling rate                            : 48.0 KHz
Compression mode                         : Lossy
Stream size                              : 47.5 MiB (12%)
Source stream size                       : 47.5 MiB (12%)
Language                                 : English
Encoded date                             : UTC 2013-05-04 13:19:16
Tagged date                              : UTC 2013-05-04 13:19:16
mdhd_Duration                            : 3175424
